<svg id="Layer_1" data-name="Layer 1" xmlns="http://www.w3.org/2000/svg" xmlns:xlink="http://www.w3.org/1999/xlink" viewBox="0 0 249.75 250"><defs><style>.cls-1{fill:url(#linear-gradient);}</style><linearGradient id="linear-gradient" x1="-1975.31" y1="-2731.02" x2="-1725.31" y2="-2731.02" gradientTransform="translate(-2481.2 2100.34) rotate(90)" gradientUnits="userSpaceOnUse"><stop offset="0" stop-color="#ef8906"/><stop offset="1" stop-color="#cc0365"/></linearGradient></defs><title>icon-gradient-app</title><path class="cls-1" d="M324.7,125h-150A50,50,0,0,0,125,170q29.87-26.24,71-26.25,44.34,0,73.71,25.84L251.14,196q-12-10.28-24.23-14.24t-28.34-4q-31.13,0-52.27,20.12t-21.14,52.86q0,32.75,20.56,52.57t49.78,19.82q29.22,0,48.9-12.63V254.15H279v70.19q-29.07,32-83.11,32-41.61,0-70.82-25A50,50,0,0,0,174.7,375h150a50,50,0,0,0,50-50V175A50,50,0,0,0,324.7,125Z" transform="translate(-124.96 -125.03)"/></svg>